<svg fill="none" width="199" height="88" xmlns="http://www.w3.org/2000/svg" viewBox="0 0 84 25" style="transform: translateY(-13px) scale(1.25)"><path fill-rule="evenodd" clip-rule="evenodd" d="M4.746 17.68c-.122.483-.257.98-.393 1.463-.202.711-.567 1.825-.784 2.536h2.42L4.746 17.68Zm1.284-2.255L9.545 24.9H7.003l-.473-1.516H3.015L2.542 24.9H0l3.542-9.475h2.489ZM15.494 15.425h2.542L14.723 24.9H12.29l-3.272-9.475h2.542l1.974 6.737 1.96-6.737ZM22.26 17.68c-.121.483-.257.98-.392 1.463-.203.711-.568 1.825-.784 2.536h2.42L22.26 17.68Zm1.285-2.255L27.06 24.9h-2.542l-.474-1.516H20.53l-.473 1.516h-2.541l3.542-9.475h2.488ZM28.499 15.425h2.34l2.068 3.49c.757 1.328.986 1.757 1.432 2.59l-.107-6.08h2.284V24.9h-2.339l-1.784-2.993c-.866-1.409-1.028-1.704-1.677-2.966l.068 5.96h-2.285v-9.476M38.901 15.425h7.706v1.852l-5.205 5.758h5.178V24.9h-8.125v-1.772l5.286-5.851h-4.84v-1.852ZM52.535 17.68c-.122.483-.257.98-.392 1.463-.203.711-.568 1.825-.784 2.536h2.42l-1.244-3.999Zm1.284-2.255 3.515 9.475h-2.541l-.473-1.516h-3.516l-.473 1.516h-2.542l3.542-9.475h2.488ZM62.466 15.376h3.282V24.9h-3.282v-9.524ZM68.464 12.613h3.283V24.9h-3.283V12.613ZM74.464 9.152h3.284V24.9h-3.284V9.152ZM80.469.159h3.283V24.9h-3.283V.159Z" fill="#213123"/></svg>