<svg width="44" height="44" viewBox="0 0 44 44" fill="none" xmlns="http://www.w3.org/2000/svg">
<circle cx="21.9477" cy="21.4463" r="8.13337" transform="rotate(-45 21.9477 21.4463)" stroke="white"/>
<path d="M6.77239 5.58124L14.7905 10.7454C15.0585 10.918 15.0987 11.2939 14.8733 11.5193L12.0193 14.3733C11.7939 14.5987 11.418 14.5584 11.2454 14.2905L6.08129 6.27234C5.7901 5.82021 6.32028 5.29006 6.77239 5.58124Z" stroke="white"/>
<path d="M37.4522 37.6434L29.4341 32.4792C29.1661 32.3066 29.1259 31.9307 29.3513 31.7053L32.2053 28.8513C32.4307 28.6259 32.8066 28.6662 32.9792 28.9342L38.1433 36.9523C38.4345 37.4044 37.9043 37.9346 37.4522 37.6434Z" stroke="white"/>
<path d="M38.1448 6.27239L32.9807 14.2905C32.8081 14.5585 32.4322 14.5987 32.2068 14.3733L29.3528 11.5193C29.1274 11.2939 29.1676 10.918 29.4356 10.7454L37.4537 5.58129C37.9059 5.2901 38.436 5.82028 38.1448 6.27239Z" stroke="white"/>
<path d="M6.08173 36.9522L11.2459 28.9341C11.4185 28.6661 11.7944 28.6259 12.0198 28.8513L14.8738 31.7053C15.0992 31.9307 15.0589 32.3066 14.7909 32.4792L6.77283 37.6433C6.3207 37.9345 5.79054 37.4043 6.08173 36.9522Z" stroke="white"/>
</svg>
