<svg width="108" height="35" viewBox="0 0 108 35" fill="none" xmlns="http://www.w3.org/2000/svg">
<path d="M42.7764 31.7536C39.3141 31.7536 38.2201 30.5793 38.2201 26.8845C38.2201 23.1896 39.3141 22.0153 42.7764 22.0153C46.2386 22.0153 47.3326 23.1896 47.3326 26.8845C47.3326 30.5793 46.2386 31.7536 42.7764 31.7536ZM42.7764 18.7754C38.1953 18.7754 34.4844 22.0215 34.4844 26.9091C34.4844 31.7966 38.2015 34.9997 42.7764 34.9997C47.3513 34.9997 51.0684 31.7536 51.0684 26.9091C51.0684 22.0645 47.3513 18.7754 42.7764 18.7754" fill="#1F1F1F"/>
<path d="M6.88203 32.1656C4.54486 32.1656 4.22785 31.1758 4.22785 30.2044C4.22785 29.399 4.68161 28.8211 5.79425 28.2248L9.11354 31.5692C8.42979 31.9935 7.76469 32.1717 6.88825 32.1717L6.88203 32.1656ZM7.15553 21.1793C8.39871 21.1793 9.00787 21.7203 9.00787 22.8331C9.00787 23.743 8.43601 24.3086 6.66448 25.1324C5.83155 24.3455 5.29076 23.743 5.29076 22.9007C5.29076 21.7634 5.91857 21.1793 7.16175 21.1793H7.15553ZM15.777 29.1593L13.6076 27.1674L12.7933 28.0527C12.2215 28.6797 11.718 29.2269 11.2642 29.688L8.57897 27.0137C10.2883 26.2021 11.948 25.034 11.948 22.7409C11.948 20.2817 10.0086 18.6279 7.11824 18.6279C4.22785 18.6279 2.26984 20.3801 2.26984 22.8946C2.26984 24.2533 2.84792 25.1631 3.99786 26.3804C2.36308 27.2534 0.902344 28.3846 0.902344 30.5364C0.902344 33.4136 2.74225 34.9998 6.0864 34.9998C8.3179 34.9998 9.7227 34.2374 10.2635 32.7312L12.2712 34.7784H16.3861L13.3279 31.7291L15.777 29.1531V29.1593Z" fill="#1F1F1F"/>
<path d="M26.9756 3.24609C30.4379 3.24609 31.5318 4.42034 31.5318 8.11522C31.5318 11.8101 30.4379 12.9844 26.9756 12.9844C23.5133 12.9844 22.4193 11.8101 22.4193 8.11522C22.4193 4.42034 23.5133 3.24609 26.9756 3.24609V3.24609ZM26.9756 16.2243C31.5567 16.2243 35.2676 12.9782 35.2676 8.13366C35.2676 3.28912 31.5567 0 26.9756 0C22.3945 0 18.6836 3.24609 18.6836 8.13366C18.6836 13.0212 22.4007 16.2243 26.9756 16.2243" fill="#1F1F1F"/>
<path d="M48.986 11.3798L47.892 9.17272L42.7452 0.227539H37.8906V16.003H41.471V4.39581L42.3785 6.40002L47.892 16.003H52.5664V0.227539H48.986V11.3798Z" fill="#1F1F1F"/>
<path d="M74.2114 0.227539L72.3031 10.2117L71.9612 12.3266L71.4826 10.2117L68.7476 0.227539H63.9614L61.2264 10.2117L60.7478 12.3266L60.4059 10.2117L58.4914 0.227539H54.3889L58.423 16.003H63.0974L65.851 6.94104L66.3545 4.39581L66.8518 6.94104L69.6116 16.003H74.2798L78.3139 0.227539H74.2114Z" fill="#1F1F1F"/>
<path d="M84.1696 9.44323L85.3568 6.01885L86.2457 3.20312L87.1097 6.01885L88.2969 9.44323H84.1758H84.1696ZM83.7158 0.227539L78.0842 16.003H81.9132L83.1005 12.5787H89.3661L90.5533 16.003H94.3823L88.7942 0.227539H83.7158V0.227539Z" fill="#1F1F1F"/>
<path d="M103.723 0.227539L100.348 6.6029L96.9727 0.227539H92.7832L98.5702 10.0519V16.003H102.169V9.98425L107.888 0.227539H103.723Z" fill="#1F1F1F"/>
<path d="M9.2304 16.2243C13.134 16.2243 16.4471 13.925 17.1805 9.75056H13.3951C12.8356 12.179 11.7416 12.9782 9.2304 12.9782C5.92976 12.9782 4.63064 11.6257 4.63064 8.10907C4.63064 4.59248 5.92976 3.23994 9.2304 3.23994C11.7416 3.23994 12.8418 4.03917 13.3951 6.47373H17.1805C16.4471 2.29931 13.134 0 9.2304 0C4.58091 0 0.888672 3.24609 0.888672 8.13366C0.888672 13.0212 4.58091 16.2243 9.2304 16.2243Z" fill="#1F1F1F"/>
<path d="M25.0315 22.0095C27.5428 22.0095 28.643 22.8087 29.1962 25.2433H32.9755C32.242 21.0688 28.9289 18.7695 25.0253 18.7695C20.3758 18.7695 16.6836 22.0156 16.6836 26.9032C16.6836 31.7908 20.3758 34.9938 25.0253 34.9938C28.9289 34.9938 32.242 32.6945 32.9755 28.5201H29.1962C28.6368 30.9485 27.5428 31.7477 25.0315 31.7477C21.7247 31.7477 20.4318 30.3952 20.4318 26.8786C20.4318 23.362 21.7309 22.0095 25.0315 22.0095" fill="#1F1F1F"/>
</svg>
