<svg width="150" height="50" viewBox="0 0 150 50" fill="none" xmlns="http://www.w3.org/2000/svg">
<path d="M58.722 45.3022C53.8683 45.3022 52.3347 43.6514 52.3347 38.4571C52.3347 33.2627 53.8683 31.6119 58.722 31.6119C63.5756 31.6119 65.1092 33.2627 65.1092 38.4571C65.1092 43.6514 63.5756 45.3022 58.722 45.3022ZM58.722 27.0571C52.2998 27.0571 47.0977 31.6206 47.0977 38.4916C47.0977 45.3627 52.3086 49.8656 58.722 49.8656C65.1354 49.8656 70.3463 45.3022 70.3463 38.4916C70.3463 31.6811 65.1354 27.0571 58.722 27.0571" fill="#F9FAF6"/>
<path d="M8.40008 45.8812C5.12366 45.8812 4.67925 44.4897 4.67925 43.1241C4.67925 41.9919 5.31537 41.1795 6.87515 40.3411L11.5284 45.0428C10.5698 45.6392 9.63745 45.8898 8.40879 45.8898L8.40008 45.8812ZM8.78349 30.4364C10.5263 30.4364 11.3802 31.197 11.3802 32.7613C11.3802 34.0405 10.5785 34.8356 8.09509 35.9937C6.92743 34.8875 6.16933 34.0405 6.16933 32.8564C6.16933 31.2575 7.04943 30.4364 8.7922 30.4364H8.78349ZM20.8696 41.6548L17.8285 38.8545L16.687 40.0991C15.8853 40.9807 15.1795 41.7499 14.5434 42.3981L10.779 38.6385C13.1753 37.4976 15.5019 35.8555 15.5019 32.6317C15.5019 29.1745 12.7832 26.8496 8.7312 26.8496C4.67925 26.8496 1.93439 29.3128 1.93439 32.8478C1.93439 34.7578 2.74478 36.037 4.35684 37.7482C2.06509 38.9755 0.017334 40.5658 0.017334 43.5908C0.017334 47.6357 2.59664 49.8655 7.2847 49.8655C10.413 49.8655 12.3823 48.7938 13.1404 46.6763L15.955 49.5544H21.7236L17.4364 45.2675L20.8696 41.6462V41.6548Z" fill="#F9FAF6"/>
<path d="M36.5713 5.22505C41.425 5.22505 42.9586 6.87583 42.9586 12.0702C42.9586 17.2645 41.425 18.9153 36.5713 18.9153C31.7177 18.9153 30.1841 17.2645 30.1841 12.0702C30.1841 6.87583 31.7177 5.22505 36.5713 5.22505V5.22505ZM36.5713 23.4701C42.9935 23.4701 48.1956 18.9067 48.1956 12.0961C48.1956 5.28555 42.9935 0.661621 36.5713 0.661621C30.1492 0.661621 24.947 5.22505 24.947 12.0961C24.947 18.9672 30.1579 23.4701 36.5713 23.4701" fill="#F9FAF6"/>
<path d="M67.4293 16.6596L65.8956 13.5568L58.6805 0.981445H51.875V23.159H56.8942V6.8413L58.1664 9.65887L65.8956 23.159H72.4485V0.981445H67.4293V16.6596Z" fill="#F9FAF6"/>
<path d="M102.789 0.981445L100.113 15.0174L99.6341 17.9906L98.9631 15.0174L95.129 0.981445H88.4194L84.5853 15.0174L83.9143 17.9906L83.435 15.0174L80.7512 0.981445H75L80.6553 23.159H87.2081L91.0684 10.4194L91.7742 6.8413L92.4713 10.4194L96.3403 23.159H102.884L108.54 0.981445H102.789Z" fill="#F9FAF6"/>
<path d="M116.75 13.9371L118.414 9.12301L119.66 5.16459L120.871 9.12301L122.536 13.9371H116.758H116.75ZM116.114 0.981445L108.219 23.159H113.586L115.251 18.3449H124.034L125.699 23.159H131.067L123.233 0.981445H116.114V0.981445Z" fill="#F9FAF6"/>
<path d="M144.163 0.981445L139.431 9.94408L134.699 0.981445H128.826L136.939 14.7927V23.159H141.984V14.6977L150.001 0.981445H144.163Z" fill="#F9FAF6"/>
<path d="M11.694 23.4701C17.1663 23.4701 21.8108 20.2377 22.8391 14.3692H17.5323C16.7481 17.7831 15.2144 18.9067 11.694 18.9067C7.06695 18.9067 5.24575 17.0053 5.24575 12.0615C5.24575 7.11783 7.06695 5.2164 11.694 5.2164C15.2144 5.2164 16.7568 6.33998 17.5323 9.76254H22.8391C21.8108 3.89405 17.1663 0.661621 11.694 0.661621C5.17604 0.661621 0 5.22505 0 12.0961C0 18.9672 5.17604 23.4701 11.694 23.4701Z" fill="#F9FAF6"/>
<path d="M33.8453 31.6031C37.3657 31.6031 38.9081 32.7267 39.6836 36.1493H44.9816C43.9534 30.2808 39.3089 27.0483 33.8366 27.0483C27.3186 27.0483 22.1426 31.6118 22.1426 38.4828C22.1426 45.3539 27.3186 49.8568 33.8366 49.8568C39.3089 49.8568 43.9534 46.6244 44.9816 40.7559H39.6836C38.8994 44.1698 37.3657 45.2934 33.8453 45.2934C29.2095 45.2934 27.397 43.392 27.397 38.4483C27.397 33.5046 29.2182 31.6031 33.8453 31.6031" fill="#F9FAF6"/>
</svg>
