<svg width="48" height="47" viewBox="0 0 48 47" fill="none" xmlns="http://www.w3.org/2000/svg">
<g clip-path="url(#clip0_0_1272)">
<path d="M34.9453 3.83789L31.8579 9.46489" stroke="#1F1F1F" stroke-linecap="round"/>
<path d="M39.5195 7.16602L35.1324 11.8469" stroke="#1F1F1F" stroke-linecap="round"/>
<path d="M43.125 11.5293L37.7139 14.97" stroke="#1F1F1F" stroke-linecap="round"/>
<path d="M45.531 16.6533L39.4359 18.6376" stroke="#1F1F1F" stroke-linecap="round"/>
<path d="M46.584 22.2148L40.1879 22.618" stroke="#1F1F1F" stroke-linecap="round"/>
<path d="M46.2324 27.8662L39.9372 26.663" stroke="#1F1F1F" stroke-linecap="round"/>
<path d="M44.4844 33.251L38.6856 30.5169" stroke="#1F1F1F" stroke-linecap="round"/>
<path d="M41.459 38.0322L36.521 33.9392" stroke="#1F1F1F" stroke-linecap="round"/>
<path d="M37.3379 41.9082L33.5709 36.7133" stroke="#1F1F1F" stroke-linecap="round"/>
<path d="M32.3867 44.6362L30.0275 38.6659" stroke="#1F1F1F" stroke-linecap="round"/>
<path d="M26.9102 46.0444L26.1069 39.6736" stroke="#1F1F1F" stroke-linecap="round"/>
<path d="M21.2595 46.0444L22.0628 39.6736" stroke="#1F1F1F" stroke-linecap="round"/>
<path d="M15.7871 44.6357L18.1463 38.6654" stroke="#1F1F1F" stroke-linecap="round"/>
<path d="M10.8359 41.9082L14.6029 36.7133" stroke="#1F1F1F" stroke-linecap="round"/>
<path d="M6.71289 38.0322L11.6509 33.9392" stroke="#1F1F1F" stroke-linecap="round"/>
<path d="M3.6875 33.251L9.48631 30.5169" stroke="#1F1F1F" stroke-linecap="round"/>
<path d="M1.94141 27.8662L8.23663 26.663" stroke="#1F1F1F" stroke-linecap="round"/>
<path d="M1.58594 22.2153L7.98208 22.6177" stroke="#1F1F1F" stroke-linecap="round"/>
<path d="M2.64282 16.6533L8.7379 18.6376" stroke="#1F1F1F" stroke-linecap="round"/>
<path d="M5.04883 11.5298L10.4599 14.9705" stroke="#1F1F1F" stroke-linecap="round"/>
<path d="M8.65234 7.16699L13.0394 11.8479" stroke="#1F1F1F" stroke-linecap="round"/>
<path d="M13.2246 3.83789L16.312 9.46488" stroke="#1F1F1F" stroke-linecap="round"/>
<path d="M18.4768 1.75391L20.0708 7.97418" stroke="#1F1F1F" stroke-linecap="round"/>
<path d="M24.0898 1.04443L24.0898 7.46569" stroke="#1F1F1F" stroke-linecap="round"/>
<path d="M29.6973 1.75342L28.1033 7.97369" stroke="#1F1F1F" stroke-linecap="round"/>
</g>
<defs>
<clipPath id="clip0_0_1272">
<rect width="47" height="47" fill="white" transform="translate(0.541016)"/>
</clipPath>
</defs>
</svg>
