<svg width="47" height="31" viewBox="0 0 47 31" fill="none" xmlns="http://www.w3.org/2000/svg">
<path d="M16 16.8281C16 14.8342 15.2554 12.9121 13.9121 11.4386C12.5688 9.96505 10.7236 9.04625 8.73822 8.86226C6.7528 8.67826 4.77022 9.24233 3.17901 10.4439C1.5878 11.6455 0.502665 13.398 0.136243 15.358C-0.230178 17.318 0.148533 19.3441 1.19816 21.0394C2.24779 22.7347 3.89268 23.9769 5.81048 24.5227C7.72828 25.0684 9.78074 24.8783 11.5657 23.9896C13.3506 23.1008 14.7393 21.5776 15.4597 19.7183L14.4783 19.3381C13.8527 20.9528 12.6467 22.2757 11.0966 23.0475C9.54649 23.8193 7.76402 23.9844 6.09851 23.5104C4.43299 23.0365 3.0045 21.9577 2.09295 20.4854C1.18139 19.0131 0.852503 17.2535 1.17072 15.5514C1.48894 13.8492 2.43133 12.3273 3.81322 11.2838C5.1951 10.2402 6.91687 9.75038 8.64111 9.91017C10.3654 10.07 11.9678 10.8679 13.1344 12.1476C14.3009 13.4273 14.9476 15.0965 14.9476 16.8281H16Z" fill="#EDEDED"/>
<path d="M46 15.9998C46 24.284 39.2843 30.9998 31 30.9998C22.7157 30.9998 16 24.284 16 15.9998C16 7.71548 22.7157 0.999756 31 0.999756C39.2843 0.999756 46 7.71548 46 15.9998ZM17.3743 15.9998C17.3743 23.525 23.4748 29.6254 31 29.6254C38.5252 29.6254 44.6257 23.525 44.6257 15.9998C44.6257 8.47451 38.5252 2.3741 31 2.3741C23.4748 2.3741 17.3743 8.47451 17.3743 15.9998Z" fill="#1F1F1F"/>
<path d="M16 16.9998C16 21.418 12.4183 24.9998 8 24.9998C3.58172 24.9998 0 21.418 0 16.9998C0 12.5815 3.58172 8.99976 8 8.99976C12.4183 8.99976 16 12.5815 16 16.9998ZM1.05746 16.9998C1.05746 20.834 4.16574 23.9423 8 23.9423C11.8343 23.9423 14.9425 20.834 14.9425 16.9998C14.9425 13.1655 11.8343 10.0572 8 10.0572C4.16574 10.0572 1.05746 13.1655 1.05746 16.9998Z" fill="#1F1F1F"/>
</svg>
