<svg width="373" height="443" viewBox="0 0 373 443" fill="none" xmlns="http://www.w3.org/2000/svg">
<circle cx="9.46155" cy="8.84241" r="8.84241" fill="#1F1F1F"/>
<circle cx="44.8307" cy="8.84241" r="8.84241" fill="#1F1F1F"/>
<circle cx="80.2018" cy="8.84241" r="8.84241" fill="#1F1F1F"/>
<circle cx="115.571" cy="8.84241" r="8.84241" fill="#1F1F1F"/>
<circle cx="150.94" cy="8.84241" r="8.84241" fill="#1F1F1F"/>
<circle cx="186.309" cy="8.84241" r="8.84241" fill="#1F1F1F"/>
<circle cx="221.68" cy="8.84241" r="8.84241" fill="#1F1F1F"/>
<circle cx="257.049" cy="8.84241" r="8.84241" fill="#1F1F1F"/>
<circle cx="292.419" cy="8.84241" r="8.84241" fill="#1F1F1F"/>
<circle cx="327.788" cy="8.84241" r="8.84241" fill="#1F1F1F"/>
<circle cx="363.159" cy="8.84241" r="8.84241" fill="#1F1F1F"/>
<circle cx="9.46155" cy="44.212" r="8.84241" fill="#1F1F1F"/>
<circle cx="44.8307" cy="44.212" r="8.84241" fill="#1F1F1F"/>
<circle cx="80.2018" cy="44.212" r="8.84241" fill="#1F1F1F"/>
<circle cx="115.571" cy="44.212" r="8.84241" fill="#1F1F1F"/>
<circle cx="150.94" cy="44.212" r="8.84241" fill="#1F1F1F"/>
<circle cx="186.309" cy="44.212" r="8.84241" fill="#1F1F1F"/>
<circle cx="221.68" cy="44.212" r="8.84241" fill="#1F1F1F"/>
<circle cx="257.049" cy="44.212" r="8.84241" fill="#1F1F1F"/>
<circle cx="292.419" cy="44.212" r="8.84241" fill="#1F1F1F"/>
<circle cx="327.788" cy="44.212" r="8.84241" fill="#EFBC25"/>
<circle cx="363.159" cy="44.212" r="8.84241" fill="#1F1F1F"/>
<circle cx="9.46155" cy="79.5817" r="8.84241" fill="#1F1F1F"/>
<circle cx="44.8307" cy="79.5817" r="8.84241" fill="#1F1F1F"/>
<circle cx="80.2018" cy="79.5817" r="8.84241" fill="#1F1F1F"/>
<circle cx="115.571" cy="79.5817" r="8.84241" fill="#1F1F1F"/>
<circle cx="150.94" cy="79.5817" r="8.84241" fill="#1F1F1F"/>
<circle cx="186.309" cy="79.5817" r="8.84241" fill="#1F1F1F"/>
<circle cx="221.68" cy="79.5817" r="8.84241" fill="#1F1F1F"/>
<circle cx="257.049" cy="79.5817" r="8.84241" fill="#1F1F1F"/>
<circle cx="292.419" cy="79.5817" r="8.84241" fill="#1F1F1F"/>
<circle cx="327.788" cy="79.5817" r="8.84241" fill="#1F1F1F"/>
<circle cx="363.159" cy="79.5817" r="8.84241" fill="#1F1F1F"/>
<circle cx="9.46155" cy="114.951" r="8.84241" fill="#1F1F1F"/>
<circle cx="44.8307" cy="114.951" r="8.84241" fill="#1F1F1F"/>
<circle cx="80.2018" cy="114.951" r="8.84241" fill="#1F1F1F"/>
<circle cx="115.571" cy="114.951" r="8.84241" fill="#1F1F1F"/>
<circle cx="150.94" cy="114.951" r="8.84241" fill="#1F1F1F"/>
<circle cx="186.309" cy="114.951" r="8.84241" fill="#1F1F1F"/>
<circle cx="221.68" cy="114.951" r="8.84241" fill="#1F1F1F"/>
<circle cx="257.049" cy="114.951" r="8.84241" fill="#1F1F1F"/>
<circle cx="292.419" cy="114.951" r="8.84241" fill="#1F1F1F"/>
<circle cx="327.788" cy="114.951" r="8.84241" fill="#1F1F1F"/>
<circle cx="363.159" cy="114.951" r="8.84241" fill="#1F1F1F"/>
<circle cx="9.46155" cy="150.321" r="8.84241" fill="#1F1F1F"/>
<circle cx="44.8307" cy="150.321" r="8.84241" fill="#1F1F1F"/>
<circle cx="80.2018" cy="150.321" r="8.84241" fill="#1F1F1F"/>
<circle cx="115.571" cy="150.321" r="8.84241" fill="#1F1F1F"/>
<circle cx="150.94" cy="150.321" r="8.84241" fill="#1F1F1F"/>
<circle cx="186.309" cy="150.321" r="8.84241" fill="#1F1F1F"/>
<circle cx="221.68" cy="150.321" r="8.84241" fill="#1F1F1F"/>
<circle cx="257.049" cy="150.321" r="8.84241" fill="#1F1F1F"/>
<circle cx="292.419" cy="150.321" r="8.84241" fill="#1F1F1F"/>
<circle cx="327.788" cy="150.321" r="8.84241" fill="#1F1F1F"/>
<circle cx="363.159" cy="150.321" r="8.84241" fill="#1F1F1F"/>
<circle cx="9.46155" cy="185.691" r="8.84241" fill="#1F1F1F"/>
<circle cx="44.8307" cy="185.691" r="8.84241" fill="#1F1F1F"/>
<circle cx="80.2018" cy="185.691" r="8.84241" fill="#1F1F1F"/>
<circle cx="115.571" cy="185.691" r="8.84241" fill="#1F1F1F"/>
<circle cx="150.94" cy="185.691" r="8.84241" fill="#1F1F1F"/>
<circle cx="186.309" cy="185.691" r="8.84241" fill="#1F1F1F"/>
<circle cx="221.68" cy="185.691" r="8.84241" fill="#1F1F1F"/>
<circle cx="257.049" cy="185.691" r="8.84241" fill="#1F1F1F"/>
<circle cx="292.419" cy="185.691" r="8.84241" fill="#1F1F1F"/>
<circle cx="327.788" cy="185.691" r="8.84241" fill="#1F1F1F"/>
<circle cx="363.159" cy="185.691" r="8.84241" fill="#1F1F1F"/>
<circle cx="9.46155" cy="221.06" r="8.84241" fill="#1F1F1F"/>
<circle cx="44.8307" cy="221.06" r="8.84241" fill="#1F1F1F"/>
<circle cx="80.2018" cy="221.06" r="8.84241" fill="#1F1F1F"/>
<circle cx="115.571" cy="221.06" r="8.84241" fill="#1F1F1F"/>
<circle cx="150.94" cy="221.06" r="8.84241" fill="#1F1F1F"/>
<circle cx="186.309" cy="221.06" r="8.84241" fill="#1F1F1F"/>
<circle cx="221.68" cy="221.06" r="8.84241" fill="#1F1F1F"/>
<circle cx="257.049" cy="221.06" r="8.84241" fill="#1F1F1F"/>
<circle cx="292.419" cy="221.06" r="8.84241" fill="#1F1F1F"/>
<circle cx="327.788" cy="221.06" r="8.84241" fill="#1F1F1F"/>
<circle cx="363.159" cy="221.06" r="8.84241" fill="#1F1F1F"/>
<circle cx="9.46155" cy="256.43" r="8.84241" fill="#1F1F1F"/>
<circle cx="44.8307" cy="256.43" r="8.84241" fill="#1F1F1F"/>
<circle cx="80.2018" cy="256.43" r="8.84241" fill="#1F1F1F"/>
<circle cx="115.571" cy="256.43" r="8.84241" fill="#1F1F1F"/>
<circle cx="150.94" cy="256.43" r="8.84241" fill="#1F1F1F"/>
<circle cx="186.309" cy="256.43" r="8.84241" fill="#1F1F1F"/>
<circle cx="221.68" cy="256.43" r="8.84241" fill="#1F1F1F"/>
<circle cx="257.049" cy="256.43" r="8.84241" fill="#1F1F1F"/>
<circle cx="292.419" cy="256.43" r="8.84241" fill="#1F1F1F"/>
<circle cx="327.788" cy="256.43" r="8.84241" fill="#1F1F1F"/>
<circle cx="363.159" cy="256.43" r="8.84241" fill="#1F1F1F"/>
<circle cx="9.46155" cy="291.799" r="8.84241" fill="#1F1F1F"/>
<circle cx="44.8307" cy="291.799" r="8.84241" fill="#1F1F1F"/>
<circle cx="80.2018" cy="291.799" r="8.84241" fill="#1F1F1F"/>
<circle cx="115.571" cy="291.799" r="8.84241" fill="#1F1F1F"/>
<circle cx="150.94" cy="291.799" r="8.84241" fill="#1F1F1F"/>
<circle cx="186.309" cy="291.799" r="8.84241" fill="#1F1F1F"/>
<circle cx="221.68" cy="291.799" r="8.84241" fill="#1F1F1F"/>
<circle cx="257.049" cy="291.799" r="8.84241" fill="#1F1F1F"/>
<circle cx="292.419" cy="291.799" r="8.84241" fill="#1F1F1F"/>
<circle cx="327.788" cy="291.799" r="8.84241" fill="#1F1F1F"/>
<circle cx="363.159" cy="291.799" r="8.84241" fill="#1F1F1F"/>
<circle cx="9.46155" cy="327.17" r="8.84241" fill="#1F1F1F"/>
<circle cx="44.8307" cy="327.17" r="8.84241" fill="#1F1F1F"/>
<circle cx="80.2018" cy="327.17" r="8.84241" fill="#1F1F1F"/>
<circle cx="115.571" cy="327.17" r="8.84241" fill="#1F1F1F"/>
<circle cx="150.94" cy="327.17" r="8.84241" fill="#1F1F1F"/>
<circle cx="186.309" cy="327.17" r="8.84241" fill="#1F1F1F"/>
<circle cx="221.68" cy="327.17" r="8.84241" fill="#1F1F1F"/>
<circle cx="257.049" cy="327.17" r="8.84241" fill="#1F1F1F"/>
<circle cx="292.419" cy="327.17" r="8.84241" fill="#1F1F1F"/>
<circle cx="327.788" cy="327.17" r="8.84241" fill="#1F1F1F"/>
<circle cx="363.159" cy="327.17" r="8.84241" fill="#1F1F1F"/>
<circle cx="9.46155" cy="362.539" r="8.84241" fill="#1F1F1F"/>
<circle cx="44.8307" cy="362.539" r="8.84241" fill="#1F1F1F"/>
<circle cx="80.2018" cy="362.539" r="8.84241" fill="#1F1F1F"/>
<circle cx="115.571" cy="362.539" r="8.84241" fill="#1F1F1F"/>
<circle cx="150.94" cy="362.539" r="8.84241" fill="#1F1F1F"/>
<circle cx="186.309" cy="362.539" r="8.84241" fill="#1F1F1F"/>
<circle cx="221.68" cy="362.539" r="8.84241" fill="#1F1F1F"/>
<circle cx="257.049" cy="362.539" r="8.84241" fill="#1F1F1F"/>
<circle cx="292.419" cy="362.539" r="8.84241" fill="#1F1F1F"/>
<circle cx="327.788" cy="362.539" r="8.84241" fill="#1F1F1F"/>
<circle cx="363.159" cy="362.539" r="8.84241" fill="#1F1F1F"/>
<circle cx="9.46155" cy="397.909" r="8.84241" fill="#1F1F1F"/>
<circle cx="44.8307" cy="397.909" r="8.84241" fill="#1F1F1F"/>
<circle cx="80.2018" cy="397.909" r="8.84241" fill="#1F1F1F"/>
<circle cx="115.571" cy="397.909" r="8.84241" fill="#1F1F1F"/>
<circle cx="150.94" cy="397.909" r="8.84241" fill="#1F1F1F"/>
<circle cx="186.309" cy="397.909" r="8.84241" fill="#1F1F1F"/>
<circle cx="221.68" cy="397.909" r="8.84241" fill="#1F1F1F"/>
<circle cx="257.049" cy="397.909" r="8.84241" fill="#1F1F1F"/>
<circle cx="292.419" cy="397.909" r="8.84241" fill="#1F1F1F"/>
<circle cx="327.788" cy="397.909" r="8.84241" fill="#1F1F1F"/>
<circle cx="363.159" cy="397.909" r="8.84241" fill="#1F1F1F"/>
<circle cx="9.46155" cy="433.278" r="8.84241" fill="#1F1F1F"/>
<circle cx="44.8307" cy="433.278" r="8.84241" fill="black"/>
<circle cx="80.2018" cy="433.278" r="8.84241" fill="black"/>
<circle cx="115.571" cy="433.278" r="8.84241" fill="#1F1F1F"/>
<circle cx="150.94" cy="433.278" r="8.84241" fill="#1F1F1F"/>
<circle cx="186.309" cy="433.278" r="8.84241" fill="#1F1F1F"/>
<circle cx="221.68" cy="433.278" r="8.84241" fill="#1F1F1F"/>
<circle cx="257.049" cy="433.278" r="8.84241" fill="#1F1F1F"/>
<circle cx="292.419" cy="433.278" r="8.84241" fill="#1F1F1F"/>
<circle cx="327.788" cy="433.278" r="8.84241" fill="#1F1F1F"/>
<circle cx="363.159" cy="433.278" r="8.84241" fill="#1F1F1F"/>
</svg>
