<svg width="372" height="160" viewBox="0 0 372 160" fill="none" xmlns="http://www.w3.org/2000/svg">
<circle cx="8.84241" cy="8.84241" r="8.84241" fill="#1F1F1F"/>
<circle cx="44.2116" cy="8.84241" r="8.84241" fill="#1F1F1F"/>
<circle cx="79.5826" cy="8.84241" r="8.84241" fill="#1F1F1F"/>
<circle cx="114.952" cy="8.84241" r="8.84241" fill="#1F1F1F"/>
<circle cx="150.321" cy="8.84241" r="8.84241" fill="#1F1F1F"/>
<circle cx="185.69" cy="8.84241" r="8.84241" fill="#1F1F1F"/>
<circle cx="221.061" cy="8.84241" r="8.84241" fill="#1F1F1F"/>
<circle cx="256.43" cy="8.84241" r="8.84241" fill="#1F1F1F"/>
<circle cx="291.8" cy="8.84241" r="8.84241" fill="#1F1F1F"/>
<circle cx="327.169" cy="8.84241" r="8.84241" fill="#1F1F1F"/>
<circle cx="362.54" cy="8.84241" r="8.84241" fill="#1F1F1F"/>
<circle cx="8.84241" cy="44.212" r="8.84241" fill="#1F1F1F"/>
<circle cx="44.2116" cy="44.212" r="8.84241" fill="#1F1F1F"/>
<circle cx="79.5826" cy="44.212" r="8.84241" fill="#1F1F1F"/>
<circle cx="114.952" cy="44.212" r="8.84241" fill="#1F1F1F"/>
<circle cx="150.321" cy="44.212" r="8.84241" fill="#1F1F1F"/>
<circle cx="185.69" cy="44.212" r="8.84241" fill="#1F1F1F"/>
<circle cx="221.061" cy="44.212" r="8.84241" fill="#1F1F1F"/>
<circle cx="256.43" cy="44.212" r="8.84241" fill="#1F1F1F"/>
<circle cx="291.8" cy="44.212" r="8.84241" fill="#1F1F1F"/>
<circle cx="327.169" cy="44.212" r="8.84241" fill="#EFBC25"/>
<circle cx="362.54" cy="44.212" r="8.84241" fill="#1F1F1F"/>
<circle cx="8.84241" cy="79.5817" r="8.84241" fill="#1F1F1F"/>
<circle cx="44.2116" cy="79.5817" r="8.84241" fill="#1F1F1F"/>
<circle cx="79.5826" cy="79.5817" r="8.84241" fill="#1F1F1F"/>
<circle cx="114.952" cy="79.5817" r="8.84241" fill="#1F1F1F"/>
<circle cx="150.321" cy="79.5817" r="8.84241" fill="#1F1F1F"/>
<circle cx="185.69" cy="79.5817" r="8.84241" fill="#1F1F1F"/>
<circle cx="221.061" cy="79.5817" r="8.84241" fill="#1F1F1F"/>
<circle cx="256.43" cy="79.5817" r="8.84241" fill="#1F1F1F"/>
<circle cx="291.8" cy="79.5817" r="8.84241" fill="#1F1F1F"/>
<circle cx="327.169" cy="79.5817" r="8.84241" fill="#1F1F1F"/>
<circle cx="362.54" cy="79.5817" r="8.84241" fill="#1F1F1F"/>
<circle cx="8.84241" cy="114.951" r="8.84241" fill="#1F1F1F"/>
<circle cx="44.2116" cy="114.951" r="8.84241" fill="#1F1F1F"/>
<circle cx="79.5826" cy="114.951" r="8.84241" fill="#1F1F1F"/>
<circle cx="114.952" cy="114.951" r="8.84241" fill="#1F1F1F"/>
<circle cx="150.321" cy="114.951" r="8.84241" fill="#1F1F1F"/>
<circle cx="185.69" cy="114.951" r="8.84241" fill="#1F1F1F"/>
<circle cx="221.061" cy="114.951" r="8.84241" fill="#1F1F1F"/>
<circle cx="256.43" cy="114.951" r="8.84241" fill="#1F1F1F"/>
<circle cx="291.8" cy="114.951" r="8.84241" fill="#1F1F1F"/>
<circle cx="327.169" cy="114.951" r="8.84241" fill="#1F1F1F"/>
<circle cx="362.54" cy="114.951" r="8.84241" fill="#1F1F1F"/>
<circle cx="8.84241" cy="150.321" r="8.84241" fill="#1F1F1F"/>
<circle cx="44.2116" cy="150.321" r="8.84241" fill="#1F1F1F"/>
<circle cx="79.5826" cy="150.321" r="8.84241" fill="#1F1F1F"/>
<circle cx="114.952" cy="150.321" r="8.84241" fill="#1F1F1F"/>
<circle cx="150.321" cy="150.321" r="8.84241" fill="#1F1F1F"/>
<circle cx="185.69" cy="150.321" r="8.84241" fill="#1F1F1F"/>
<circle cx="221.061" cy="150.321" r="8.84241" fill="#1F1F1F"/>
<circle cx="256.43" cy="150.321" r="8.84241" fill="#1F1F1F"/>
<circle cx="291.8" cy="150.321" r="8.84241" fill="#1F1F1F"/>
<circle cx="327.169" cy="150.321" r="8.84241" fill="#1F1F1F"/>
<circle cx="362.54" cy="150.321" r="8.84241" fill="#1F1F1F"/>
</svg>
