<svg width="38" height="41" viewBox="0 0 38 41" fill="none" xmlns="http://www.w3.org/2000/svg">
<path d="M4.56783 3.61154C4.56783 4.80424 3.64017 5.73968 2.53392 5.73968C1.42766 5.73968 0.5 4.80424 0.5 3.61154C0.5 2.41884 1.42766 1.4834 2.53392 1.4834C3.64017 1.4834 4.56783 2.41884 4.56783 3.61154Z" stroke="white"/>
<path d="M4.56783 12.2844C4.56783 13.4771 3.64017 14.4125 2.53392 14.4125C1.42766 14.4125 0.5 13.4771 0.5 12.2844C0.5 11.0917 1.42766 10.1562 2.53392 10.1562C3.64017 10.1562 4.56783 11.0917 4.56783 12.2844Z" stroke="white"/>
<path d="M4.56783 20.9572C4.56783 22.1499 3.64017 23.0854 2.53392 23.0854C1.42766 23.0854 0.5 22.1499 0.5 20.9572C0.5 19.7645 1.42766 18.8291 2.53392 18.8291C3.64017 18.8291 4.56783 19.7645 4.56783 20.9572Z" stroke="white"/>
<path d="M4.56783 29.6301C4.56783 30.8228 3.64017 31.7582 2.53392 31.7582C1.42766 31.7582 0.5 30.8228 0.5 29.6301C0.5 28.4374 1.42766 27.502 2.53392 27.502C3.64017 27.502 4.56783 28.4374 4.56783 29.6301Z" stroke="white"/>
<path d="M4.56783 38.3029C4.56783 39.4957 3.64017 40.4311 2.53392 40.4311C1.42766 40.4311 0.5 39.4957 0.5 38.3029C0.5 37.1102 1.42766 36.1748 2.53392 36.1748C3.64017 36.1748 4.56783 37.1102 4.56783 38.3029Z" stroke="white"/>
<path d="M12.6772 3.61154C12.6772 4.80424 11.7495 5.73968 10.6433 5.73968C9.53704 5.73968 8.60938 4.80424 8.60938 3.61154C8.60938 2.41884 9.53704 1.4834 10.6433 1.4834C11.7495 1.4834 12.6772 2.41884 12.6772 3.61154Z" stroke="white"/>
<path d="M12.6772 12.2844C12.6772 13.4771 11.7495 14.4125 10.6433 14.4125C9.53704 14.4125 8.60938 13.4771 8.60938 12.2844C8.60938 11.0917 9.53704 10.1562 10.6433 10.1562C11.7495 10.1562 12.6772 11.0917 12.6772 12.2844Z" stroke="white"/>
<path d="M12.6772 20.9572C12.6772 22.1499 11.7495 23.0854 10.6433 23.0854C9.53704 23.0854 8.60938 22.1499 8.60938 20.9572C8.60938 19.7645 9.53704 18.8291 10.6433 18.8291C11.7495 18.8291 12.6772 19.7645 12.6772 20.9572Z" stroke="white"/>
<path d="M12.6772 29.6301C12.6772 30.8228 11.7495 31.7582 10.6433 31.7582C9.53704 31.7582 8.60938 30.8228 8.60938 29.6301C8.60938 28.4374 9.53704 27.502 10.6433 27.502C11.7495 27.502 12.6772 28.4374 12.6772 29.6301Z" stroke="white"/>
<path d="M12.6772 38.3029C12.6772 39.4957 11.7495 40.4311 10.6433 40.4311C9.53704 40.4311 8.60938 39.4957 8.60938 38.3029C8.60938 37.1102 9.53704 36.1748 10.6433 36.1748C11.7495 36.1748 12.6772 37.1102 12.6772 38.3029Z" stroke="white"/>
<path d="M20.7846 3.61154C20.7846 4.80424 19.857 5.73968 18.7507 5.73968C17.6445 5.73968 16.7168 4.80424 16.7168 3.61154C16.7168 2.41884 17.6445 1.4834 18.7507 1.4834C19.857 1.4834 20.7846 2.41884 20.7846 3.61154Z" stroke="white"/>
<path d="M20.7846 12.2844C20.7846 13.4771 19.857 14.4125 18.7507 14.4125C17.6445 14.4125 16.7168 13.4771 16.7168 12.2844C16.7168 11.0917 17.6445 10.1562 18.7507 10.1562C19.857 10.1562 20.7846 11.0917 20.7846 12.2844Z" stroke="white"/>
<path d="M20.7846 20.9572C20.7846 22.1499 19.857 23.0854 18.7507 23.0854C17.6445 23.0854 16.7168 22.1499 16.7168 20.9572C16.7168 19.7645 17.6445 18.8291 18.7507 18.8291C19.857 18.8291 20.7846 19.7645 20.7846 20.9572Z" stroke="white"/>
<path d="M20.7846 29.6301C20.7846 30.8228 19.857 31.7582 18.7507 31.7582C17.6445 31.7582 16.7168 30.8228 16.7168 29.6301C16.7168 28.4374 17.6445 27.502 18.7507 27.502C19.857 27.502 20.7846 28.4374 20.7846 29.6301Z" stroke="white"/>
<path d="M20.7846 38.3029C20.7846 39.4957 19.857 40.4311 18.7507 40.4311C17.6445 40.4311 16.7168 39.4957 16.7168 38.3029C16.7168 37.1102 17.6445 36.1748 18.7507 36.1748C19.857 36.1748 20.7846 37.1102 20.7846 38.3029Z" stroke="white"/>
<path d="M28.8921 3.61154C28.8921 4.80424 27.9644 5.73968 26.8581 5.73968C25.7519 5.73968 24.8242 4.80424 24.8242 3.61154C24.8242 2.41884 25.7519 1.4834 26.8581 1.4834C27.9644 1.4834 28.8921 2.41884 28.8921 3.61154Z" stroke="white"/>
<path d="M28.8921 12.2844C28.8921 13.4771 27.9644 14.4125 26.8581 14.4125C25.7519 14.4125 24.8242 13.4771 24.8242 12.2844C24.8242 11.0917 25.7519 10.1562 26.8581 10.1562C27.9644 10.1562 28.8921 11.0917 28.8921 12.2844Z" stroke="white"/>
<path d="M28.8921 20.9572C28.8921 22.1499 27.9644 23.0854 26.8581 23.0854C25.7519 23.0854 24.8242 22.1499 24.8242 20.9572C24.8242 19.7645 25.7519 18.8291 26.8581 18.8291C27.9644 18.8291 28.8921 19.7645 28.8921 20.9572Z" stroke="white"/>
<path d="M28.8921 29.6301C28.8921 30.8228 27.9644 31.7582 26.8581 31.7582C25.7519 31.7582 24.8242 30.8228 24.8242 29.6301C24.8242 28.4374 25.7519 27.502 26.8581 27.502C27.9644 27.502 28.8921 28.4374 28.8921 29.6301Z" stroke="white"/>
<path d="M28.8921 38.3029C28.8921 39.4957 27.9644 40.4311 26.8581 40.4311C25.7519 40.4311 24.8242 39.4957 24.8242 38.3029C24.8242 37.1102 25.7519 36.1748 26.8581 36.1748C27.9644 36.1748 28.8921 37.1102 28.8921 38.3029Z" stroke="white"/>
<path d="M37.0014 3.61154C37.0014 4.80424 36.0738 5.73968 34.9675 5.73968C33.8613 5.73968 32.9336 4.80424 32.9336 3.61154C32.9336 2.41884 33.8613 1.4834 34.9675 1.4834C36.0738 1.4834 37.0014 2.41884 37.0014 3.61154Z" stroke="white"/>
<path d="M37.0014 12.2844C37.0014 13.4771 36.0738 14.4125 34.9675 14.4125C33.8613 14.4125 32.9336 13.4771 32.9336 12.2844C32.9336 11.0917 33.8613 10.1562 34.9675 10.1562C36.0738 10.1562 37.0014 11.0917 37.0014 12.2844Z" stroke="white"/>
<path d="M37.0014 20.9572C37.0014 22.1499 36.0738 23.0854 34.9675 23.0854C33.8613 23.0854 32.9336 22.1499 32.9336 20.9572C32.9336 19.7645 33.8613 18.8291 34.9675 18.8291C36.0738 18.8291 37.0014 19.7645 37.0014 20.9572Z" stroke="white"/>
<path d="M37.0014 29.6301C37.0014 30.8228 36.0738 31.7582 34.9675 31.7582C33.8613 31.7582 32.9336 30.8228 32.9336 29.6301C32.9336 28.4374 33.8613 27.502 34.9675 27.502C36.0738 27.502 37.0014 28.4374 37.0014 29.6301Z" stroke="white"/>
<path d="M37.0014 38.3029C37.0014 39.4957 36.0738 40.4311 34.9675 40.4311C33.8613 40.4311 32.9336 39.4957 32.9336 38.3029C32.9336 37.1102 33.8613 36.1748 34.9675 36.1748C36.0738 36.1748 37.0014 37.1102 37.0014 38.3029Z" stroke="white"/>
</svg>
