<svg width="45" height="46" viewBox="0 0 45 46" fill="none" xmlns="http://www.w3.org/2000/svg">
<circle cx="22.2768" cy="2.14848" r="1.1783" transform="rotate(180 22.2768 2.14848)" fill="#1F1F1F"/>
<circle cx="22.2768" cy="44.3432" r="1.1783" transform="rotate(180 22.2768 44.3432)" fill="#1F1F1F"/>
<circle cx="16.8147" cy="2.86713" r="1.1783" transform="rotate(165 16.8147 2.86713)" fill="#1F1F1F"/>
<circle cx="27.7366" cy="43.6241" r="1.1783" transform="rotate(165 27.7366 43.6241)" fill="#1F1F1F"/>
<circle cx="11.7263" cy="4.9752" r="1.1783" transform="rotate(150 11.7263 4.9752)" fill="#1F1F1F"/>
<ellipse cx="32.824" cy="41.5166" rx="1.1783" ry="1.1783" transform="rotate(150 32.824 41.5166)" fill="#1F1F1F"/>
<circle cx="7.35706" cy="8.328" r="1.1783" transform="rotate(135 7.35706 8.328)" fill="#1F1F1F"/>
<circle cx="37.193" cy="38.1639" r="1.1783" transform="rotate(135 37.193 38.1639)" fill="#1F1F1F"/>
<circle cx="4.00759" cy="12.6972" r="1.1783" transform="rotate(120 4.00759 12.6972)" fill="#1F1F1F"/>
<circle cx="40.5486" cy="33.7944" r="1.1783" transform="rotate(120 40.5486 33.7944)" fill="#1F1F1F"/>
<circle cx="42.6092" cy="28.5797" r="1.1783" transform="rotate(120 42.6092 28.5797)" fill="#1F1F1F"/>
<circle cx="1.90063" cy="17.7842" r="1.1783" transform="rotate(105 1.90063 17.7842)" fill="#1F1F1F"/>
<circle cx="1.17912" cy="23.2458" r="1.1783" transform="rotate(90 1.17912 23.2458)" fill="#1F1F1F"/>
<circle cx="43.3725" cy="23.2459" r="1.1783" transform="rotate(90 43.3725 23.2459)" fill="#1F1F1F"/>
<circle cx="1.89728" cy="28.7062" r="1.1783" transform="rotate(75 1.89728 28.7062)" fill="#1F1F1F"/>
<circle cx="42.6551" cy="17.7854" r="1.1783" transform="rotate(75 42.6551 17.7854)" fill="#1F1F1F"/>
<circle cx="4.00621" cy="33.7945" r="1.1783" transform="rotate(60 4.00621 33.7945)" fill="#1F1F1F"/>
<ellipse cx="40.5472" cy="12.6972" rx="1.1783" ry="1.1783" transform="rotate(60 40.5472 12.6972)" fill="#1F1F1F"/>
<circle cx="7.35742" cy="38.1638" r="1.1783" transform="rotate(45 7.35742 38.1638)" fill="#1F1F1F"/>
<circle cx="37.1953" cy="8.32763" r="1.1783" transform="rotate(45 37.1953 8.32763)" fill="#1F1F1F"/>
<circle cx="11.7262" cy="41.5167" r="1.1783" transform="rotate(30 11.7262 41.5167)" fill="#1F1F1F"/>
<ellipse cx="32.8239" cy="4.97507" rx="1.1783" ry="1.1783" transform="rotate(30 32.8239 4.97507)" fill="#1F1F1F"/>
<circle cx="16.8137" cy="43.624" r="1.1783" transform="rotate(15 16.8137 43.624)" fill="#1F1F1F"/>
<circle cx="27.7355" cy="2.86744" r="1.1783" transform="rotate(15 27.7355 2.86744)" fill="#1F1F1F"/>
<circle cx="22.4849" cy="23.4541" r="7.01611" stroke="#1F1F1F"/>
</svg>
