<svg width="149" height="60" viewBox="0 -10 149 80" fill="none" xmlns="http://www.w3.org/2000/svg">
<g clip-path="url(#clip0_1_12)">
<path d="M86.0168 43.5765V16.4256H89.3173C98.3685 16.4256 104.205 20.5151 104.205 29.9069V30.0931C104.205 39.4849 98.3685 43.5765 89.3173 43.5765H86.0168ZM66.2222 60H88.2164C112.155 60 124.167 47.4035 124.167 29.6571V29.4856C124.167 11.7435 112.41 0 88.8932 0H66.2222V60Z" fill="#213123"/>
<path d="M12.4167 41.3793H43.4583V20.6897H12.4167V41.3793Z" fill="#213123"/>
<path d="M130.375 60H149V0H130.375V60Z" fill="#213123"/>
<path d="M0 60H18.625V0H0V60Z" fill="#213123"/>
<path d="M39.3194 60H57.9444V0H39.3194V60Z" fill="#213123"/>
</g>
<defs>
<clipPath id="clip0_1_12">
<rect width="149" height="60" fill="white"/>
</clipPath>
</defs>
</svg>