<svg width="200" height="77" viewBox="0 0 200 77" fill="none" xmlns="http://www.w3.org/2000/svg">
<path d="M169.831 2.10205L111.313 50.3674H139.867L198.365 2.10205H169.831Z" fill="#213129"/>
<path d="M60.1124 2.10205L1.59424 50.3674H30.1481L88.6663 2.10205H60.1124Z" fill="#213129"/>
<path d="M111.313 2.10205H88.6663V50.3674H111.313V2.10205Z" fill="#213129"/>
<path d="M122.698 58.4697V72.3269L115.953 58.4697H111.313V75.8779H114.563V61.8779L121.369 75.8779H125.948V58.4697H122.698Z" fill="#213129"/>
<path d="M133.654 65.5918C135.636 65.5918 136.965 67.2041 136.965 69.6327C136.965 72.0816 135.636 73.6531 133.654 73.6531C131.671 73.6531 130.342 72.0816 130.342 69.6327C130.342 67.2041 131.651 65.5918 133.654 65.5918ZM133.654 63C129.872 63 127.195 65.6939 127.195 69.6531C127.195 73.5918 129.872 76.3061 133.654 76.3061C137.435 76.3061 140.112 73.6122 140.112 69.6531C140.112 65.6939 137.435 63 133.654 63Z" fill="#213129"/>
<path d="M195.095 65.7146V63.3881H192.826V59.5718H189.739V63.3881H187.777V65.7146H189.739V72.0208C189.739 74.6126 190.802 75.8983 194.134 75.8983H195.095V73.3269H194.359C193.255 73.3269 192.846 72.9187 192.846 71.8779V65.7146H195.095Z" fill="#213129"/>
<path d="M147.716 63.2041C145.754 63.2041 144.793 64.1633 144.221 65.551V63.3674H141.339V75.8776H144.425V69.6939C144.425 67.4286 145.529 66.1225 147.736 66.1225H148.37V63.2041H147.716Z" fill="#213123"/>
<path d="M154.747 73.6329C152.826 73.6329 151.62 72.0411 151.62 69.6533C151.62 67.2247 152.928 65.6737 154.788 65.6737C156.587 65.6737 157.976 67.1431 157.976 69.6533C157.997 72.0819 156.648 73.6329 154.747 73.6329ZM157.874 58.4696V64.837C157.057 63.6941 155.81 63.0206 154.073 63.0206C150.884 63.0206 148.533 65.5717 148.533 69.6329C148.533 73.6533 150.843 76.2247 154.032 76.2247C155.973 76.2247 157.302 75.388 158.099 74.0002V75.8574H160.981V58.4492H157.874V58.4696Z" fill="#213129"/>
<path d="M169.586 63C167.787 63 166.52 63.8163 165.784 65.0408V63.4082H162.902V75.9184H165.989V68.3469C165.989 66.7755 167.072 65.6939 168.564 65.6939C170.117 65.6939 170.955 66.5918 170.955 68.2449V75.9184H174.042V67.3673C174.042 64.8367 172.509 63 169.586 63Z" fill="#213129"/>
<path d="M181.523 65.4082C183.26 65.4082 184.303 66.5102 184.446 68.2245H178.436C178.763 66.5714 179.806 65.4082 181.523 65.4082ZM187.532 69.2449C187.532 65.4286 185.243 63 181.564 63C177.639 63 175.309 65.8776 175.309 69.7143C175.309 73.6939 177.741 76.2857 181.768 76.2857C184.364 76.2857 186.796 74.9388 187.43 71.9388H184.384C183.894 73.2041 182.79 73.6939 181.686 73.6939C179.663 73.6939 178.6 72.3673 178.355 70.4286H187.491C187.512 70.2041 187.532 69.6122 187.532 69.2449Z" fill="#213129"/>
</svg>