<svg style="transform: translateY(-5px) scale(1.0);" width="199" height="88" viewBox="0 0 199 88" fill="none" xmlns="http://www.w3.org/2000/svg">
<path d="M54.1247 22.4319L43.3981 30.4984C38.3335 26.1101 31.806 25.2489 28.2042 25.2489C24.6024 25.2489 20.7611 26.2982 20.1718 28.9323C19.6009 31.4869 21.9556 33.4743 26.0099 34.582C30.63 35.8381 34.8369 36.9458 41.3144 38.8087C50.9491 41.5806 57.5397 45.7755 57.5397 55.5141C57.5397 68.9362 45.7134 75.8897 29.867 75.8897C14.0205 75.8897 3.22559 67.5714 0 63.6945L11.3396 55.1537C19.3062 62.147 24.8444 63.1327 29.4723 63.1327C34.7843 63.1327 39.7516 61.9827 40.3883 58.9776C40.9066 56.5476 38.907 54.6131 34.3817 53.5558C29.2645 52.3659 24.9418 51.4067 20.1218 50.1294C7.05368 46.6738 3.36766 39.0234 3.36766 32.1494C3.36766 22.6837 12.1157 12.9636 28.1147 12.9636C44.1138 12.9636 54.1273 22.4293 54.1273 22.4293M122.491 13.9123H74.6753V74.1036H123.367V60.2257H91.4663V50.5295H113.443V37.2479H91.4663V27.663H122.488V13.9123H122.491ZM62.2992 88H66.0141V0H62.2992V88ZM129.647 88H133.362V0H129.647V88ZM142 74.1062H180.407C190.676 74.1062 199 67.8735 199 57.8885C199 50.1002 193.938 44.9328 186.845 42.6591C186.845 42.6591 186.553 42.5876 186.158 42.5717C186.553 42.5346 186.845 42.4524 186.845 42.4524C190.91 40.8306 195.409 36.5165 195.409 29.1735C195.409 19.8588 187.226 13.915 177.126 13.915H142.002V74.1062H142ZM158.875 26.4307H172.29C175.379 26.4307 177.878 28.8873 177.878 31.7095C177.878 34.5317 175.379 36.9961 172.29 36.9961H158.875V26.4281V26.4307ZM175.284 60.7266L158.875 60.7319V49.7531H175.284C178.186 49.7531 180.538 52.1221 180.538 55.2412C180.538 58.3602 178.186 60.7292 175.284 60.7292V60.7266Z" fill="#213123"/>
</svg>