<svg width="46" height="45" viewBox="0 0 46 45" fill="none" xmlns="http://www.w3.org/2000/svg">
<circle cx="23.0413" cy="22.5006" r="1.1783" fill="#1F1F1F"/>
<circle cx="23.0394" cy="1.40291" r="1.1783" fill="#1F1F1F"/>
<circle cx="17.5794" cy="2.12225" r="1.1783" transform="rotate(-15 17.5794 2.12225)" fill="#1F1F1F"/>
<ellipse cx="12.4924" cy="4.22914" rx="1.1783" ry="1.1783" transform="rotate(-30 12.4924 4.22914)" fill="#1F1F1F"/>
<circle cx="8.12243" cy="7.58203" r="1.1783" transform="rotate(-45 8.12243 7.58203)" fill="#1F1F1F"/>
<ellipse cx="4.76999" cy="11.9515" rx="1.1783" ry="1.1783" transform="rotate(-60 4.76999 11.9515)" fill="#1F1F1F"/>
<circle cx="2.65845" cy="17.0408" r="1.1783" transform="rotate(-75 2.65845 17.0408)" fill="#1F1F1F"/>
<circle cx="1.94369" cy="22.4994" r="1.1783" transform="rotate(-90 1.94369 22.4994)" fill="#1F1F1F"/>
<circle cx="2.66375" cy="27.9607" r="1.1783" transform="rotate(-105 2.66375 27.9607)" fill="#1F1F1F"/>
<circle cx="2.66375" cy="27.9607" r="1.1783" transform="rotate(-105 2.66375 27.9607)" fill="#1F1F1F"/>
<ellipse cx="4.76918" cy="33.0486" rx="1.1783" ry="1.1783" transform="rotate(-120 4.76918 33.0486)" fill="#1F1F1F"/>
<circle cx="8.12305" cy="37.4186" r="1.1783" transform="rotate(-135 8.12305 37.4186)" fill="#1F1F1F"/>
<ellipse cx="12.4942" cy="40.7713" rx="1.1783" ry="1.1783" transform="rotate(-150 12.4942 40.7713)" fill="#1F1F1F"/>
<circle cx="17.5823" cy="42.8787" r="1.1783" transform="rotate(-165 17.5823 42.8787)" fill="#1F1F1F"/>
<circle cx="23.0426" cy="43.5971" r="1.1783" transform="rotate(180 23.0426 43.5971)" fill="#1F1F1F"/>
<circle cx="28.5085" cy="42.8782" r="1.1783" transform="rotate(165 28.5085 42.8782)" fill="#1F1F1F"/>
<ellipse cx="33.5896" cy="40.7709" rx="1.1783" ry="1.1783" transform="rotate(150 33.5896 40.7709)" fill="#1F1F1F"/>
<circle cx="37.9596" cy="37.418" r="1.1783" transform="rotate(135 37.9596 37.418)" fill="#1F1F1F"/>
<circle cx="41.312" cy="33.0485" r="1.1783" transform="rotate(120 41.312 33.0485)" fill="#1F1F1F"/>
<circle cx="43.4294" cy="27.9592" r="1.1783" transform="rotate(105 43.4294 27.9592)" fill="#1F1F1F"/>
<circle cx="44.1383" cy="22.5006" r="1.1783" transform="rotate(90 44.1383 22.5006)" fill="#1F1F1F"/>
<circle cx="43.4183" cy="17.0393" r="1.1783" transform="rotate(75 43.4183 17.0393)" fill="#1F1F1F"/>
<ellipse cx="41.3129" cy="11.9514" rx="1.1783" ry="1.1783" transform="rotate(60 41.3129 11.9514)" fill="#1F1F1F"/>
<circle cx="37.959" cy="7.58141" r="1.1783" transform="rotate(45 37.959 7.58141)" fill="#1F1F1F"/>
<ellipse cx="33.5897" cy="4.22873" rx="1.1783" ry="1.1783" transform="rotate(30 33.5897 4.22873)" fill="#1F1F1F"/>
<circle cx="28.4997" cy="2.12134" r="1.1783" transform="rotate(15 28.4997 2.12134)" fill="#1F1F1F"/>
<circle cx="23.0394" cy="6.67733" r="1.1783" fill="#1F1F1F"/>
<circle cx="23.0394" cy="6.67733" r="1.1783" fill="#1F1F1F"/>
<ellipse cx="18.1522" cy="7.45134" rx="1.1783" ry="1.1783" transform="rotate(-18 18.1522 7.45134)" fill="#1F1F1F"/>
<ellipse cx="13.7386" cy="9.69915" rx="1.1783" ry="1.1783" transform="rotate(-36 13.7386 9.69915)" fill="#1F1F1F"/>
<ellipse cx="10.2406" cy="13.2012" rx="1.1783" ry="1.1783" transform="rotate(-54 10.2406 13.2012)" fill="#1F1F1F"/>
<ellipse cx="7.99232" cy="17.6107" rx="1.1783" ry="1.1783" transform="rotate(-72 7.99232 17.6107)" fill="#1F1F1F"/>
<circle cx="7.21908" cy="22.4999" r="1.1783" transform="rotate(-90 7.21908 22.4999)" fill="#1F1F1F"/>
<ellipse cx="7.99236" cy="27.3898" rx="1.1783" ry="1.1783" transform="rotate(-108 7.99236 27.3898)" fill="#1F1F1F"/>
<ellipse cx="10.2419" cy="31.8004" rx="1.1783" ry="1.1783" transform="rotate(-126 10.2419 31.8004)" fill="#1F1F1F"/>
<ellipse cx="13.7484" cy="35.3009" rx="1.1783" ry="1.1783" transform="rotate(-144 13.7484 35.3009)" fill="#1F1F1F"/>
<ellipse cx="18.1522" cy="37.5489" rx="1.1783" ry="1.1783" transform="rotate(-162 18.1522 37.5489)" fill="#1F1F1F"/>
<circle cx="23.0426" cy="38.3227" r="1.1783" transform="rotate(-180 23.0426 38.3227)" fill="#1F1F1F"/>
<ellipse cx="27.9298" cy="37.5487" rx="1.1783" ry="1.1783" transform="rotate(162 27.9298 37.5487)" fill="#1F1F1F"/>
<ellipse cx="32.3434" cy="35.3008" rx="1.1783" ry="1.1783" transform="rotate(144 32.3434 35.3008)" fill="#1F1F1F"/>
<ellipse cx="35.8414" cy="31.7988" rx="1.1783" ry="1.1783" transform="rotate(126 35.8414 31.7988)" fill="#1F1F1F"/>
<ellipse cx="38.0897" cy="27.3898" rx="1.1783" ry="1.1783" transform="rotate(108 38.0897 27.3898)" fill="#1F1F1F"/>
<circle cx="38.863" cy="22.5001" r="1.1783" transform="rotate(90 38.863 22.5001)" fill="#1F1F1F"/>
<ellipse cx="38.0897" cy="17.6102" rx="1.1783" ry="1.1783" transform="rotate(72 38.0897 17.6102)" fill="#1F1F1F"/>
<ellipse cx="35.8402" cy="13.1991" rx="1.1783" ry="1.1783" transform="rotate(54 35.8402 13.1991)" fill="#1F1F1F"/>
<ellipse cx="32.3398" cy="9.69908" rx="1.1783" ry="1.1783" transform="rotate(36 32.3398 9.69908)" fill="#1F1F1F"/>
<ellipse cx="27.9299" cy="7.45106" rx="1.1783" ry="1.1783" transform="rotate(18 27.9299 7.45106)" fill="#1F1F1F"/>
<circle cx="23.0394" cy="11.9513" r="1.1783" fill="#1F1F1F"/>
<ellipse cx="17.7658" cy="13.3649" rx="1.1783" ry="1.1783" transform="rotate(-30 17.7658 13.3649)" fill="#1F1F1F"/>
<ellipse cx="13.9065" cy="17.2259" rx="1.1783" ry="1.1783" transform="rotate(-60 13.9065 17.2259)" fill="#1F1F1F"/>
<circle cx="12.4925" cy="22.4999" r="1.1783" transform="rotate(-90 12.4925 22.4999)" fill="#1F1F1F"/>
<ellipse cx="13.9039" cy="27.7742" rx="1.1783" ry="1.1783" transform="rotate(-120 13.9039 27.7742)" fill="#1F1F1F"/>
<ellipse cx="17.7696" cy="31.6355" rx="1.1783" ry="1.1783" transform="rotate(-150 17.7696 31.6355)" fill="#1F1F1F"/>
<circle cx="23.0426" cy="33.0487" r="1.1783" transform="rotate(180 23.0426 33.0487)" fill="#1F1F1F"/>
<ellipse cx="28.3162" cy="31.6351" rx="1.1783" ry="1.1783" transform="rotate(150 28.3162 31.6351)" fill="#1F1F1F"/>
<ellipse cx="32.1814" cy="27.7741" rx="1.1783" ry="1.1783" transform="rotate(120 32.1814 27.7741)" fill="#1F1F1F"/>
<circle cx="33.5895" cy="22.5001" r="1.1783" transform="rotate(90 33.5895 22.5001)" fill="#1F1F1F"/>
<ellipse cx="32.1761" cy="17.2258" rx="1.1783" ry="1.1783" transform="rotate(60 32.1761 17.2258)" fill="#1F1F1F"/>
<ellipse cx="28.3121" cy="13.365" rx="1.1783" ry="1.1783" transform="rotate(30 28.3121 13.365)" fill="#1F1F1F"/>
<circle cx="23.0394" cy="17.2262" r="1.1783" fill="#1F1F1F"/>
<ellipse cx="18.4729" cy="19.8631" rx="1.1783" ry="1.1783" transform="rotate(-60 18.4729 19.8631)" fill="#1F1F1F"/>
<ellipse cx="18.4743" cy="25.138" rx="1.1783" ry="1.1783" transform="rotate(-120 18.4743 25.138)" fill="#1F1F1F"/>
<circle cx="23.0426" cy="27.7738" r="1.1783" transform="rotate(-180 23.0426 27.7738)" fill="#1F1F1F"/>
<ellipse cx="27.6092" cy="25.1369" rx="1.1783" ry="1.1783" transform="rotate(120 27.6092 25.1369)" fill="#1F1F1F"/>
<ellipse cx="27.6078" cy="19.862" rx="1.1783" ry="1.1783" transform="rotate(60 27.6078 19.862)" fill="#1F1F1F"/>
</svg>
